<?xml version="1.0" encoding="UTF-8"?> <svg xmlns="http://www.w3.org/2000/svg" width="500" height="220" viewBox="0 0 500 220" fill="none"><rect x="5" y="4" width="490" height="211.384" rx="105.7" ry="105.7" fill="#EF3124"/><path d="M306.448 127.53L320.785 87.2812H317.054L332.601 127.53L336.09 123.073H302.837L306.448 127.53ZM272.107 151.869H295.72L302.596 136.081L295.012 140.417H343.812L336.228 136.081L342.983 151.869H368.168L332.497 67.5195H308.641L272.124 151.869H272.107ZM214.877 108.978V129.465H243.431C262.709 129.465 274.404 117.062 274.404 98.3713C274.404 79.6806 262.709 67.5195 243.431 67.5195H193.906V151.869H216.795V82.9454L211.37 87.1603H241.497C247.646 87.1603 250.894 91.1334 250.894 98.3713C250.894 105.609 247.646 108.978 241.497 108.978H214.86H214.877ZM393.7 151.869H418.16V115.352L416.346 125.233L455.628 67.5195H426.953L403.097 103.795H409.126L385.27 67.5195H356.595L396.723 126.079L393.717 116.198V151.869H393.7Z" fill="white"></path><path d="M102.449 166.672C134.533 166.672 160.542 141.158 160.542 109.685C160.542 78.2115 134.533 52.6973 102.449 52.6973C70.3646 52.6973 44.3555 78.2115 44.3555 109.685C44.3555 141.158 70.3646 166.672 102.449 166.672Z" fill="white"></path><path fill-rule="evenodd" clip-rule="evenodd" d="M110.176 81.7862C108.967 78.1413 107.049 75.2393 102.42 75.2393C97.7904 75.2393 95.9594 78.124 94.7329 81.7862L82.1055 119.133H91.0881L93.9037 110.306H111.005L113.821 119.133H122.803L110.176 81.7862ZM96.3049 102.774L102.282 84.0664H102.593L108.57 102.774H96.2876H96.3049Z" fill="#EF3124"></path><path d="M123.713 131.226H81.1836V140.053H123.713V131.226Z" fill="#EF3124"></path></svg> 