<?xml version="1.0" encoding="utf-8"?>
<!-- Generator: Adobe Illustrator 28.0.0, SVG Export Plug-In . SVG Version: 6.00 Build 0)  -->
<svg version="1.1" id="Слой_1" xmlns="http://www.w3.org/2000/svg" xmlns:xlink="http://www.w3.org/1999/xlink" x="0px" y="0px"
	 viewBox="0 0 1000 273" style="enable-background:new 0 0 1000 273;" xml:space="preserve">
<style type="text/css">
	.st0{fill:#0F754E;}
	.st1{fill:url(#SVGID_1_);}
</style>
<path class="st0" d="M0,0h93.8c8.5,0,34.1-2.8,45.5,37c8.5,25.6,19.9,65.4,37,125.1h5.7C199,99.5,213.2,56.9,218.9,37
	c11.4-39.8,39.8-37,51.2-37h88.1V273h-91v-162h-5.7l-48.3,162H145l-48.3-162h-8.5v162H0 M395.2,0h91v162h8.5l59.7-133.6
	c11.4-25.6,37-28.4,37-28.4h85.3V273h-91v-162H580l-59.7,133.6c-11.4,25.6-39.8,28.4-39.8,28.4h-85.3 M798.9,190.5V273h-85.3V130.8
	h278.6c-11.4,34.1-51.2,59.7-96.7,59.7"/>
<linearGradient id="SVGID_1_" gradientUnits="userSpaceOnUse" x1="963.7418" y1="216.2406" x2="736.3101" y2="216.2406" gradientTransform="matrix(1 0 0 -1 0 273.1429)">
	<stop  offset="0" style="stop-color:#1F5CD7"/>
	<stop  offset="1" style="stop-color:#02AEFF"/>
</linearGradient>
<path class="st1" d="M997.9,113.8C1009.2,62.6,975.1,0,901.2,0H707.9c5.7,59.7,56.9,113.7,110.9,113.7"/>
</svg>
