<?xml version="1.0" encoding="utf-8"?>
<!-- Generator: Adobe Illustrator 28.0.0, SVG Export Plug-In . SVG Version: 6.00 Build 0)  -->
<svg version="1.1" id="Слой_1" xmlns="http://www.w3.org/2000/svg" xmlns:xlink="http://www.w3.org/1999/xlink" x="0px" y="0px"
	 viewBox="0 0 1000 415.5300293" enable-background="new 0 0 1000 415.5300293" xml:space="preserve">
<path fill="#303030" d="M792.2349854,0H207.7650146C93.0185928,0,0,93.0185928,0,207.7650146
	c0,114.7468262,93.0185928,207.7650146,207.7650146,207.7650146h584.4699707
	C906.9813843,415.5300293,1000,322.5118408,1000,207.7650146C1000,93.0185928,906.9813843,0,792.2349854,0z"/>
<path fill="#FFFFFF" d="M471.2874146,211.8891907v-33.6647034h36.734314c7.781189,0,12.2584229,0.8508453,15.8504028,2.2248993
	c6.4071655,2.5132751,9.4432373,8.3309784,9.4432373,14.4767456c0,6.6685638-3.6255493,13.0757294-10.555481,15.2940674
	c-3.3309937,1.1126556-7.2183228,1.6689911-14.7381592,1.6689911H471.2874146z M513.8394165,146.2283478h-82.918396v132.4335175
	h40.333252v-35.6282196h42.5516357c9.9995728,0,19.7442627-0.2949371,29.2210083-3.3310089
	c18.3637085-5.8508301,31.9957275-22.2575531,31.9957275-44.5151062c0-22.2579651-13.3706055-38.4032898-31.4393921-44.7769165
	c-10.0064697-3.6259308-19.4832764-4.1822662-29.7773438-4.1822662H513.8394165z"/>
<path fill="#FFFFFF" d="M622.8695679,259.4776001h61.2102661l7.7807617,19.1813965h45.333252l-54.2536621-132.4335022h-58.9918823
	l-54.2532959,132.4335022h45.6212158l7.5198364-19.1813965H622.8695679z M632.8691406,230.256134l19.1879883-53.4020081h3.0695801
	l19.1813965,53.4020081H632.8691406z"/>
<polygon fill="#FFFFFF" points="835.3740234,146.2283478 802.5601807,206.5942688 801.1530151,206.5942688 768.0446167,146.2283478 
	721.0493164,146.2283478 780.8589478,243.5899811 780.8589478,278.6618652 822.5928345,278.6618652 822.5928345,240.2589722 
	879.366333,146.2283478 "/>
<path fill="#FFDD2D" d="M120.6635208,106.9357529h224.071106v112.6892319c0,28.8925629-15.4216919,55.5937958-40.4273376,70.0435333
	l-71.6049347,41.3387451l-71.6118927-41.3387451c-25.0322418-14.4497375-40.4269333-41.1509705-40.4269333-70.0435333V106.9357529z"
	/>
<path fill-rule="evenodd" clip-rule="evenodd" fill="#333333" d="M182.1428986,166.2597809v35.0387573
	c4.8052673-5.4286957,13.497879-9.0881653,23.4638824-9.0881653h10.8172913v40.7554016
	c0,10.8508148-2.9358521,20.3275909-7.3189697,25.5554352h47.0958862
	c-4.3430176-5.2278442-7.2854156-14.7046204-7.2854156-25.5218964v-40.7554016h10.817276
	c9.9660034,0,18.6921692,3.6594849,23.4638977,9.0881653V166.293335H182.1093597L182.1428986,166.2597809z"/>
</svg>
