<svg xmlns="http://www.w3.org/2000/svg" viewBox="0 0 512 512" shape-rendering="geometricPrecision">
  <rect width="512" height="512" rx="100" ry="100" fill="#EDEBD7"/>
  <g fill="none" transform="translate(52 56) scale(1.2)">
    <path d="M112.876 111.041C86.5102 139.702 74.6013 185.179 74.6013 253.47V333.043H49.5742V253.47C49.5742 183.431 61.5399 129.88 94.4566 94.0978C127.611 58.0564 179.304 42.9023 251.474 42.9023H314.157V67.9272H251.474C182.004 67.9272 139.005 82.6368 112.876 111.041Z" stroke="#1E5CCB" stroke-width="1.1366" stroke-linecap="round" stroke-linejoin="round"/>
    <path d="M314.074 31.8472V6.82007H337.85V31.8472H314.074Z" fill="#1E5CCB" stroke="#1E5CCB" stroke-width="1.1366" stroke-linecap="round" stroke-linejoin="round"/>
    <path d="M154.065 137.772C133.666 160.735 124.185 197.517 124.185 253.625V333.043H99.1582V253.625C99.1582 195.913 108.647 151.214 135.354 121.15C162.397 90.7093 204.425 78.1479 262.154 78.1479H314.158V103.175H262.154C207.339 103.175 174.127 115.186 154.065 137.772Z" stroke="#1E5CCB" stroke-width="1.1366" stroke-linecap="round" stroke-linejoin="round"/>
    <path d="M314.074 67.9272V42.9023H337.85V67.9295L314.074 67.9272Z" fill="#1E5CCB" stroke="#1E5CCB" stroke-width="1.1366" stroke-linecap="round" stroke-linejoin="round"/>
    <path d="M314.074 103.175V78.1479H337.85V103.175H314.074Z" fill="#1E5CCB" stroke="#1E5CCB" stroke-width="1.1366" stroke-linecap="round" stroke-linejoin="round"/>
    <path d="M73.7243 83.5564C41.9545 118.092 27.8689 172.596 27.8689 253.496V333.043H2.8418V253.496C2.8418 170.848 16.9831 108.271 55.3047 66.6121C93.8627 24.6964 154.189 6.82007 239.268 6.82007H314.158V31.8472H239.268C156.887 31.8472 105.257 49.2768 73.7243 83.5564Z" stroke="#1E5CCB" stroke-width="1.1366" stroke-linecap="round" stroke-linejoin="round"/>
    <path d="M313.997 119.461V144.008H337.85V119.461H313.997Z" fill="#1E5CCB" stroke="#1E5CCB" stroke-width="1.1366" stroke-linecap="round" stroke-linejoin="round"/>
    <path d="M195.361 169.212C181.312 185.812 174.714 212.602 174.714 253.865V333.043H149.687V253.865C149.687 211.322 156.204 177.048 176.104 153.534C196.506 129.427 228.413 119.461 271.765 119.461H313.999V144.008H271.765C231.782 144.008 208.907 153.206 195.361 169.212Z" stroke="#1E5CCB" stroke-width="1.1366" stroke-linecap="round" stroke-linejoin="round"/>
    <path d="M27.8691 253.496C27.8691 172.596 41.9536 118.092 73.7234 83.5564C105.257 49.2768 156.888 31.8472 239.269 31.8472H255.182C172.801 31.8472 121.17 49.2768 89.6379 83.5564C57.8669 118.092 43.7825 172.596 43.7825 253.496V333.043H27.8691V253.496Z" fill="#1E5CCB" stroke="#1E5CCB" stroke-width="1.1366" stroke-linecap="round" stroke-linejoin="round"/>
    <path d="M74.6016 253.47C74.6016 185.179 86.5104 139.703 112.875 111.041C139.005 82.6369 182.004 67.9285 251.474 67.9285H267.387C197.917 67.9285 154.918 82.6369 128.789 111.041C102.424 139.703 90.5149 185.179 90.5149 253.47V333.043H74.6016V253.47Z" fill="#1E5CCB" stroke="#1E5CCB" stroke-width="1.1366" stroke-linecap="round" stroke-linejoin="round"/>
    <path d="M124.186 253.625C124.186 197.517 133.666 160.735 154.065 137.772C174.127 115.187 207.34 103.176 262.153 103.176H278.066C223.253 103.176 190.041 115.187 169.978 137.772C149.58 160.735 140.099 197.517 140.099 253.625V333.043H124.186V253.625Z" fill="#1E5CCB" stroke="#1E5CCB" stroke-width="1.1366" stroke-linecap="round" stroke-linejoin="round"/>
    <path d="M174.714 253.865C174.714 212.602 181.312 185.812 195.36 169.212C208.907 153.205 231.782 144.008 271.765 144.008H287.678C247.696 144.008 224.82 153.205 211.274 169.212C197.226 185.812 190.627 212.602 190.627 253.865V333.043H174.714V253.865Z" fill="#1E5CCB" stroke="#1E5CCB" stroke-width="1.1366" stroke-linecap="round" stroke-linejoin="round"/>
  </g>
</svg>
