<svg width="695" height="341" viewBox="0 0 695 341" fill="none" xmlns="http://www.w3.org/2000/svg">
<path d="M339.567 247.358C339.567 254.625 338.209 261.502 335.493 267.99C332.777 274.478 329.027 280.188 324.241 285.118C319.456 289.92 313.894 293.748 307.557 296.602C301.22 299.327 294.429 300.69 287.187 300.69C284.988 300.69 282.66 300.495 280.203 300.106C277.745 299.716 275.353 299.068 273.025 298.159C270.826 297.251 268.756 296.018 266.816 294.461C265.006 292.774 263.648 290.763 262.742 288.427V333H235V197.725H262.742V205.316C265.329 201.812 268.886 199.282 273.413 197.725C278.069 196.168 282.66 195.389 287.187 195.389C294.429 195.389 301.22 196.752 307.557 199.477C313.894 202.072 319.456 205.705 324.241 210.377C329.027 215.048 332.777 220.563 335.493 226.921C338.209 233.279 339.567 240.092 339.567 247.358ZM287.187 223.223C283.953 223.223 280.849 223.872 277.875 225.169C275.029 226.337 272.507 228.024 270.308 230.23C268.11 232.306 266.299 234.772 264.876 237.626C263.583 240.351 262.872 243.336 262.742 246.58V248.721C262.872 251.965 263.583 255.014 264.876 257.869C266.299 260.594 268.11 263.059 270.308 265.265C272.507 267.341 275.029 269.028 277.875 270.326C280.849 271.494 283.953 272.078 287.187 272.078C290.42 272.078 293.459 271.494 296.305 270.326C299.28 269.158 301.866 267.536 304.065 265.46C306.264 263.384 308.01 260.983 309.303 258.258C310.726 255.403 311.566 252.419 311.825 249.305L312.019 247.748L311.825 246.19C311.566 243.076 310.726 240.157 309.303 237.432C308.01 234.577 306.264 232.111 304.065 230.035C301.866 227.959 299.28 226.337 296.305 225.169C293.459 223.872 290.42 223.223 287.187 223.223Z" fill="#1E5CCB"/>
<path d="M386.91 195C394.153 195 400.943 196.362 407.28 199.087C413.747 201.812 419.309 205.575 423.965 210.377C428.75 215.048 432.501 220.563 435.217 226.921C438.062 233.279 439.485 240.092 439.485 247.358C439.485 254.625 438.127 261.437 435.411 267.795C432.695 274.154 429.009 279.798 424.353 284.729C419.697 289.53 414.2 293.358 407.862 296.213C401.525 298.938 394.735 300.3 387.492 300.3C380.249 300.3 373.395 298.938 366.928 296.213C360.59 293.488 355.029 289.79 350.244 285.118C345.458 280.317 341.643 274.738 338.797 268.379C336.081 262.021 334.723 255.209 334.723 247.942C334.723 240.676 336.081 233.863 338.797 227.505C341.514 221.017 345.2 215.437 349.856 210.766C354.512 205.965 360.008 202.137 366.346 199.282C372.683 196.427 379.538 195 386.91 195ZM387.298 272.661C390.532 272.661 393.636 272.013 396.61 270.715C399.585 269.417 402.172 267.666 404.37 265.46C406.569 263.124 408.315 260.464 409.608 257.48C411.031 254.365 411.742 251.121 411.742 247.748C411.742 244.374 411.096 241.195 409.802 238.21C408.509 235.226 406.698 232.63 404.37 230.425C402.172 228.219 399.52 226.467 396.416 225.169C393.442 223.872 390.273 223.223 386.91 223.223C383.547 223.223 380.379 223.937 377.404 225.364C374.429 226.661 371.843 228.413 369.644 230.619C367.445 232.825 365.699 235.485 364.406 238.599C363.112 241.584 362.466 244.698 362.466 247.942C362.466 251.316 363.112 254.56 364.406 257.674C365.829 260.659 367.639 263.254 369.838 265.46C372.166 267.666 374.817 269.417 377.792 270.715C380.767 272.013 383.935 272.661 387.298 272.661Z" fill="#1E5CCB"/>
<path d="M513.65 236.264C517.013 239.508 519.664 243.401 521.604 247.942C523.673 252.354 524.708 257.155 524.708 262.346C524.708 267.536 523.738 272.337 521.798 276.749C519.987 281.031 517.336 284.794 513.844 288.038C510.481 291.152 506.537 293.618 502.01 295.434C497.483 297.121 492.633 297.965 487.46 297.965H434.497V197.725H468.059C473.233 197.725 478.212 198.114 482.998 198.893C487.783 199.542 491.792 201.164 495.026 203.759C498.388 206.354 500.91 209.663 502.592 213.685C504.273 217.189 504.92 222.574 504.532 229.841C507.895 231.528 510.934 233.669 513.65 236.264ZM462.239 270.131H486.878C487.524 270.131 488.43 270.001 489.594 269.742C490.758 269.353 491.857 268.834 492.892 268.185C494.056 267.536 495.026 266.693 495.802 265.654C496.578 264.616 496.966 263.384 496.966 261.956C496.836 259.361 495.737 257.285 493.668 255.728C491.598 254.171 489.27 253.392 486.684 253.392H462.239V270.131ZM477.953 224.001C477.953 221.406 476.854 219.654 474.655 218.746C472.586 217.838 470.258 217.384 467.671 217.384H462.239V225.559H477.759C477.889 225.039 477.953 224.52 477.953 224.001Z" fill="#1E5CCB"/>
<path d="M566.608 297.965V253.392H548.566V297.965H520.823V197.725H548.566V225.559H566.608V197.725H594.35V297.965H566.608Z" fill="#1E5CCB"/>
<path d="M642.425 195C649.668 195 656.458 196.362 662.796 199.087C669.262 201.812 674.824 205.575 679.48 210.377C684.265 215.048 688.016 220.563 690.732 226.921C693.577 233.279 695 240.092 695 247.358C695 254.625 693.642 261.437 690.926 267.795C688.21 274.154 684.524 279.798 679.868 284.729C675.212 289.53 669.715 293.358 663.378 296.213C657.04 298.938 650.25 300.3 643.007 300.3C635.764 300.3 628.91 298.938 622.443 296.213C616.106 293.488 610.544 289.79 605.759 285.118C600.973 280.317 597.158 274.738 594.313 268.379C591.597 262.021 590.239 255.209 590.239 247.942C590.239 240.676 591.597 233.863 594.313 227.505C597.029 221.017 600.715 215.437 605.371 210.766C610.027 205.965 615.524 202.137 621.861 199.282C628.198 196.427 635.053 195 642.425 195ZM642.813 272.661C646.047 272.661 649.151 272.013 652.125 270.715C655.1 269.417 657.687 267.666 659.886 265.46C662.084 263.124 663.83 260.464 665.124 257.48C666.546 254.365 667.258 251.121 667.258 247.748C667.258 244.374 666.611 241.195 665.318 238.21C664.024 235.226 662.214 232.63 659.886 230.425C657.687 228.219 655.035 226.467 651.931 225.169C648.957 223.872 645.788 223.223 642.425 223.223C639.063 223.223 635.894 223.937 632.919 225.364C629.944 226.661 627.358 228.413 625.159 230.619C622.96 232.825 621.214 235.485 619.921 238.599C618.628 241.584 617.981 244.698 617.981 247.942C617.981 251.316 618.628 254.56 619.921 257.674C621.344 260.659 623.154 263.254 625.353 265.46C627.681 267.666 630.332 269.417 633.307 270.715C636.282 272.013 639.451 272.661 642.813 272.661Z" fill="#1E5CCB"/>
<path d="M112.876 111.041C86.5102 139.702 74.6013 185.179 74.6013 253.47V333.043H49.5742V253.47C49.5742 183.431 61.5399 129.88 94.4566 94.0978C127.611 58.0564 179.304 42.9023 251.474 42.9023H314.157V67.9272H251.474C182.004 67.9272 139.005 82.6368 112.876 111.041Z" stroke="#1E5CCB" stroke-width="1.1366" stroke-linecap="round" stroke-linejoin="round"/>
<path d="M314.074 31.8472V6.82007H337.85V31.8472H314.074Z" fill="#1E5CCB" stroke="#1E5CCB" stroke-width="1.1366" stroke-linecap="round" stroke-linejoin="round"/>
<path d="M154.065 137.772C133.666 160.735 124.185 197.517 124.185 253.625V333.043H99.1582V253.625C99.1582 195.913 108.647 151.214 135.354 121.15C162.397 90.7093 204.425 78.1479 262.154 78.1479H314.158V103.175H262.154C207.339 103.175 174.127 115.186 154.065 137.772Z" stroke="#1E5CCB" stroke-width="1.1366" stroke-linecap="round" stroke-linejoin="round"/>
<path d="M314.074 67.9272V42.9023H337.85V67.9295L314.074 67.9272Z" fill="#1E5CCB" stroke="#1E5CCB" stroke-width="1.1366" stroke-linecap="round" stroke-linejoin="round"/>
<path d="M314.074 103.175V78.1479H337.85V103.175H314.074Z" fill="#1E5CCB" stroke="#1E5CCB" stroke-width="1.1366" stroke-linecap="round" stroke-linejoin="round"/>
<path d="M73.7243 83.5564C41.9545 118.092 27.8689 172.596 27.8689 253.496V333.043H2.8418V253.496C2.8418 170.848 16.9831 108.271 55.3047 66.6121C93.8627 24.6964 154.189 6.82007 239.268 6.82007H314.158V31.8472H239.268C156.887 31.8472 105.257 49.2768 73.7243 83.5564Z" stroke="#1E5CCB" stroke-width="1.1366" stroke-linecap="round" stroke-linejoin="round"/>
<path d="M313.997 119.461V144.008H337.85V119.461H313.997Z" fill="#1E5CCB" stroke="#1E5CCB" stroke-width="1.1366" stroke-linecap="round" stroke-linejoin="round"/>
<path d="M195.361 169.212C181.312 185.812 174.714 212.602 174.714 253.865V333.043H149.687V253.865C149.687 211.322 156.204 177.048 176.104 153.534C196.506 129.427 228.413 119.461 271.765 119.461H313.999V144.008H271.765C231.782 144.008 208.907 153.206 195.361 169.212Z" stroke="#1E5CCB" stroke-width="1.1366" stroke-linecap="round" stroke-linejoin="round"/>
<path d="M27.8691 253.496C27.8691 172.596 41.9536 118.092 73.7234 83.5564C105.257 49.2768 156.888 31.8472 239.269 31.8472H255.182C172.801 31.8472 121.17 49.2768 89.6379 83.5564C57.8669 118.092 43.7825 172.596 43.7825 253.496V333.043H27.8691V253.496Z" fill="#1E5CCB" stroke="#1E5CCB" stroke-width="1.1366" stroke-linecap="round" stroke-linejoin="round"/>
<path d="M74.6016 253.47C74.6016 185.179 86.5104 139.703 112.875 111.041C139.005 82.6369 182.004 67.9285 251.474 67.9285H267.387C197.917 67.9285 154.918 82.6369 128.789 111.041C102.424 139.703 90.5149 185.179 90.5149 253.47V333.043H74.6016V253.47Z" fill="#1E5CCB" stroke="#1E5CCB" stroke-width="1.1366" stroke-linecap="round" stroke-linejoin="round"/>
<path d="M124.186 253.625C124.186 197.517 133.666 160.735 154.065 137.772C174.127 115.187 207.34 103.176 262.153 103.176H278.066C223.253 103.176 190.041 115.187 169.978 137.772C149.58 160.735 140.099 197.517 140.099 253.625V333.043H124.186V253.625Z" fill="#1E5CCB" stroke="#1E5CCB" stroke-width="1.1366" stroke-linecap="round" stroke-linejoin="round"/>
<path d="M174.714 253.865C174.714 212.602 181.312 185.812 195.36 169.212C208.907 153.205 231.782 144.008 271.765 144.008H287.678C247.696 144.008 224.82 153.205 211.274 169.212C197.226 185.812 190.627 212.602 190.627 253.865V333.043H174.714V253.865Z" fill="#1E5CCB" stroke="#1E5CCB" stroke-width="1.1366" stroke-linecap="round" stroke-linejoin="round"/>
</svg>
